<svg
   xmlns="http://www.w3.org/2000/svg"
   width="512"
   height="512"
   viewBox="0 0 135.46667 135.46667">
   <g
     transform="translate(11.56305,-313.71417)">
    <g
       transform="matrix(1.8621574,0,0,1.8621574,-150.86223,165.82575)">
      <circle
         style="fill:#f2e21b"
         cx="111.17885"
         cy="115.79137"
         r="36.373581" />
      <path
         d="m 95.221305,100.09965 c -6.641728,6.6426 -6.641547,17.41157 5.67e-4,24.05386 l 17.767898,17.76788 c 1.2077,1.20755 3.16561,1.20754 4.37333,-1e-5 1.20782,-1.20765 1.20795,-3.16577 2.7e-4,-4.3736 l -10.93579,-10.93251 c -1.43414,-1.43409 -1.43454,-3.75894 -5.7e-4,-5.19318 1.4342,-1.43428 3.75983,-1.43453 5.19403,-2.8e-4 l 10.65503,10.65502 c 1.35873,1.35859 3.56859,1.36282 4.92733,0.004 1.35886,-1.3587 1.35899,-3.56172 2.8e-4,-4.92056 l -10.66237,-10.65899 c -1.43425,-1.43419 -1.43425,-3.75956 0,-5.19375 1.4342,-1.43426 3.75955,-1.43425 5.19374,0 l 10.93416,10.93416 0.002,-7.3e-4 c 1.20781,1.20768 3.16594,1.20754 4.3736,-2.8e-4 1.20756,-1.20771 1.20756,-3.16562 0,-4.37332 -5.92178,-5.91631 -11.8477,-11.84431 -17.76959,-17.76619 -6.64218,-6.641992 -17.41095,-6.642334 -24.053545,-7.3e-4 z m 4.921085,4.9189 c 3.78875,-3.78436 9.11289,-4.55284 13.08268,-0.95884 -0.24514,-0.21864 0,0 0,0 0.55871,0.61016 0.53815,1.55199 -0.0466,2.13722 l -11.85771,11.85771 c -0.58513,0.58467 -1.526741,0.60533 -2.136952,0.047 l -2.76e-4,-3e-4 c -2.962476,-3.99712 -2.55475,-9.56016 0.958848,-13.08266 z"
         style="fill:#243136"/>
    </g>
  </g>
</svg>
