<?xml version="1.0" encoding="UTF-8" standalone="no"?>
<svg
   xmlns:dc="http://purl.org/dc/elements/1.1/"
   xmlns:cc="http://creativecommons.org/ns#"
   xmlns:rdf="http://www.w3.org/1999/02/22-rdf-syntax-ns#"
   xmlns:svg="http://www.w3.org/2000/svg"
   xmlns="http://www.w3.org/2000/svg"
   xmlns:sodipodi="http://sodipodi.sourceforge.net/DTD/sodipodi-0.dtd"
   xmlns:inkscape="http://www.inkscape.org/namespaces/inkscape"
   inkscape:export-ydpi="96"
   inkscape:export-xdpi="96"
   inkscape:export-filename="C:\Users\Suzuki\Documents\Unifesp\EPPEN Coders\Identidade visual\Logo\EPPEN Coders logo rounded dark 512x512.png"
   width="512"
   height="512"
   viewBox="0 0 135.46667 135.46667"
   version="1.1"
   id="svg8"
   inkscape:version="1.0.2 (e86c870879, 2021-01-15)"
   sodipodi:docname="favicon.svg">
  <defs
     id="defs2" />
  <sodipodi:namedview
     borderlayer="true"
     inkscape:showpageshadow="false"
     id="base"
     pagecolor="#ffffff"
     bordercolor="#666666"
     borderopacity="1.0"
     inkscape:pageopacity="0.0"
     inkscape:pageshadow="2"
     inkscape:zoom="0.17828536"
     inkscape:cx="-886.0734"
     inkscape:cy="1044.2974"
     inkscape:document-units="px"
     inkscape:current-layer="layer1"
     inkscape:document-rotation="0"
     showgrid="false"
     inkscape:window-width="1920"
     inkscape:window-height="1016"
     inkscape:window-x="0"
     inkscape:window-y="27"
     inkscape:window-maximized="1"
     units="px"
     fit-margin-top="0"
     fit-margin-left="0"
     fit-margin-right="0"
     fit-margin-bottom="0" />
  <metadata
     id="metadata5">
    <rdf:RDF>
      <cc:Work
         rdf:about="">
        <dc:format>image/svg+xml</dc:format>
        <dc:type
           rdf:resource="http://purl.org/dc/dcmitype/StillImage" />
        <dc:title></dc:title>
      </cc:Work>
    </rdf:RDF>
  </metadata>
  <g
     inkscape:label="Layer 1"
     inkscape:groupmode="layer"
     id="layer1"
     transform="translate(11.56305,-313.71417)">
    <g
       id="g1082"
       transform="matrix(1.8621574,0,0,1.8621574,-150.86223,165.82575)">
      <circle
         style="fill:#f2e21b;fill-opacity:1;fill-rule:evenodd;stroke:none;stroke-width:0.290989;stroke-linecap:round;stroke-linejoin:round;stroke-miterlimit:0;stroke-dasharray:none;stroke-dashoffset:0;stroke-opacity:1;paint-order:fill markers stroke"
         id="circle1050"
         cx="-111.17885"
         cy="115.79137"
         r="36.373581"
         transform="scale(-1,1)" />
      <path
         sodipodi:nodetypes="cccccccccsccccccscccccccccccc"
         inkscape:connector-curvature="0"
         id="path1052"
         d="m 95.221305,100.09965 c -6.641728,6.6426 -6.641547,17.41157 5.67e-4,24.05386 l 17.767898,17.76788 c 1.2077,1.20755 3.16561,1.20754 4.37333,-1e-5 1.20782,-1.20765 1.20795,-3.16577 2.7e-4,-4.3736 l -10.93579,-10.93251 c -1.43414,-1.43409 -1.43454,-3.75894 -5.7e-4,-5.19318 1.4342,-1.43428 3.75983,-1.43453 5.19403,-2.8e-4 l 10.65503,10.65502 c 1.35873,1.35859 3.56859,1.36282 4.92733,0.004 1.35886,-1.3587 1.35899,-3.56172 2.8e-4,-4.92056 l -10.66237,-10.65899 c -1.43425,-1.43419 -1.43425,-3.75956 0,-5.19375 1.4342,-1.43426 3.75955,-1.43425 5.19374,0 l 10.93416,10.93416 0.002,-7.3e-4 c 1.20781,1.20768 3.16594,1.20754 4.3736,-2.8e-4 1.20756,-1.20771 1.20756,-3.16562 0,-4.37332 -5.92178,-5.91631 -11.8477,-11.84431 -17.76959,-17.76619 -6.64218,-6.641992 -17.41095,-6.642334 -24.053545,-7.3e-4 z m 4.921085,4.9189 c 3.78875,-3.78436 9.11289,-4.55284 13.08268,-0.95884 -0.24514,-0.21864 0,0 0,0 0.55871,0.61016 0.53815,1.55199 -0.0466,2.13722 l -11.85771,11.85771 c -0.58513,0.58467 -1.526741,0.60533 -2.136952,0.047 l -2.76e-4,-3e-4 c -2.962476,-3.99712 -2.55475,-9.56016 0.958848,-13.08266 z"
         style="fill:#243136;fill-opacity:1;fill-rule:evenodd;stroke:none;stroke-width:0.227968;stroke-linecap:round;stroke-linejoin:round;stroke-miterlimit:4;stroke-dasharray:none;stroke-dashoffset:0;stroke-opacity:1;paint-order:fill markers stroke" />
    </g>
  </g>
</svg>
