<svg xmlns="http://www.w3.org/2000/svg" viewBox="0 0 100 100"><g id="icon">
   <circle
      fill="var(--header-icon-color)" cx="50" cy="50" r="48" />
   <path
      d="m 28,28.38 c -9.13,9.13 -9.13,23.94 0.00,33.07 l 24.43,24.43 c 1.66,1.66 4.35,1.66 6.01,-0.00 1.66,-1.66 1.66,-4.35 0.00,-6.01 L 43.4,64.88 c -1.97,-1.97 -1.97,-5.17 -0.00,-7.14 1.97,-1.97 5.17,-1.97 7.14,-0.00 l 14.65,14.65 c 1.87,1.87 4.91,1.87 6.77,0.01 1.87,-1.87 1.87,-4.90 0.00,-6.76 L 57.3,50.94 c -1.97,-1.97 -1.97,-5.17 0.00,-7.14 1.97,-1.97 5.17,-1.97 7.14,0.00 l 15.03,15.03 0.00,-0.00 c 1.66,1.66 4.35,1.66 6.01,-0.00 1.66,-1.66 1.66,-4.35 0.00,-6.01 -8.14,-8.13 -16.29,-16.28 -24.43,-24.42 -9.13,-9.13 -23.93,-9.13 -33.07,-0.00 z m 6.76,6.76 c 5.21,-5.20 12.53,-6.26 17.98,-1.32 -0.34,-0.30 0.00,0.00 0.00,0.00 0.77,0.84 0.74,2.13 -0.06,2.94 L 36.38,53.11 c -0.80,0.80 -2.10,0.83 -2.94,0.06 l -0.00,-0.00 c -4.07,-5.49 -3.51,-13.14 1.32,-18.03 z"
      fill="#243136" />
</g></svg>
